<svg width="25" height="24" viewBox="0 0 25 24" fill="none" xmlns="http://www.w3.org/2000/svg">
<path d="M3 8C3 6.11438 3 5.17157 3.58579 4.58579C4.17157 4 5.11438 4 7 4H8.51285C9.30882 4 9.7068 4 10.0666 4.145C10.4263 4.28999 10.7131 4.56597 11.2866 5.11792L12.5259 6.31065C13.0994 6.8626 13.3862 7.13858 13.7459 7.28358C14.1057 7.42857 14.5037 7.42857 15.2996 7.42857H18C19.8856 7.42857 20.8284 7.42857 21.4142 8.01436C22 8.60014 22 9.54295 22 11.4286V16C22 17.8856 22 18.8284 21.4142 19.4142C20.8284 20 19.8856 20 18 20H7C5.11438 20 4.17157 20 3.58579 19.4142C3 18.8284 3 17.8856 3 16V8Z" fill="white" stroke="white" stroke-width="2"/>
</svg>
