<svg width="25" height="24" viewBox="0 0 25 24" fill="none" xmlns="http://www.w3.org/2000/svg">
<path d="M13.2192 2.28959L12.6666 3L12.6666 3.00001L13.2192 2.28959ZM12.1141 2.28959L12.6666 3.00001L12.6666 3.00001L12.1141 2.28959ZM21.3192 8.58959L21.8717 7.87917L21.8717 7.87917L21.3192 8.58959ZM4.45744 21.1092L3.82104 21.7456L3.82104 21.7456L4.45744 21.1092ZM4.01408 8.58959L3.46153 7.87917H3.46153L4.01408 8.58959ZM9.96663 21.8999H9.06663C9.06663 22.397 9.46957 22.7999 9.96663 22.7999V21.8999ZM15.3666 21.8999V22.7999C15.8637 22.7999 16.2666 22.397 16.2666 21.8999H15.3666ZM13.7717 1.57917C13.1217 1.07362 12.2115 1.07362 11.5615 1.57917L12.6666 3.00001L12.6666 3L13.7717 1.57917ZM21.8717 7.87917L13.7717 1.57917L12.6666 3.00001L20.7666 9.30001L21.8717 7.87917ZM22.5666 9.30001C22.5666 8.74454 22.3102 8.22019 21.8717 7.87917L20.7666 9.3L20.7666 9.30001H22.5666ZM22.5666 19.2V9.30001H20.7666V19.2H22.5666ZM21.5122 21.7456C22.1873 21.0705 22.5666 20.1548 22.5666 19.2H20.7666C20.7666 19.6774 20.577 20.1352 20.2394 20.4728L21.5122 21.7456ZM18.9666 22.8C19.9214 22.8 20.8371 22.4207 21.5122 21.7456L20.2394 20.4728C19.9019 20.8104 19.444 21 18.9666 21V22.8ZM6.36663 22.8H18.9666V21H6.36663V22.8ZM3.82104 21.7456C4.49617 22.4207 5.41185 22.8 6.36663 22.8V21C5.88924 21 5.4314 20.8104 5.09383 20.4728L3.82104 21.7456ZM2.76663 19.2C2.76663 20.1548 3.14591 21.0705 3.82104 21.7456L5.09383 20.4728C4.75627 20.1352 4.56663 19.6774 4.56663 19.2H2.76663ZM2.76663 9.30001V19.2H4.56663V9.30001H2.76663ZM3.46153 7.87917C3.02308 8.22019 2.76663 8.74454 2.76663 9.30001H4.56663L4.56663 9.30001L3.46153 7.87917ZM11.5615 1.57917L3.46153 7.87917L4.56663 9.30001L12.6666 3.00001L11.5615 1.57917ZM10.8666 13.7999C10.8666 13.3029 11.2696 12.8999 11.7666 12.8999V11.0999C10.2755 11.0999 9.06663 12.3087 9.06663 13.7999H10.8666ZM10.8666 21.8999V13.7999H9.06663V21.8999H10.8666ZM15.3666 20.9999H9.96663V22.7999H15.3666V20.9999ZM14.4666 13.7999V21.8999H16.2666V13.7999H14.4666ZM13.5666 12.8999C14.0637 12.8999 14.4666 13.3029 14.4666 13.7999H16.2666C16.2666 12.3087 15.0578 11.0999 13.5666 11.0999V12.8999ZM11.7666 12.8999H13.5666V11.0999H11.7666V12.8999Z" fill="white"/>
</svg>
