<svg width="25" height="24" viewBox="0 0 25 24" fill="none" xmlns="http://www.w3.org/2000/svg">
<path fill-rule="evenodd" clip-rule="evenodd" d="M12.0527 1.21065C12.4138 0.929784 12.9195 0.929784 13.2806 1.21065L22.2806 8.21065C22.5242 8.4001 22.6666 8.69141 22.6666 9V20C22.6666 20.7957 22.3506 21.5587 21.7879 22.1213C21.2253 22.6839 20.4623 23 19.6666 23H15.6666V14C15.6666 12.8954 14.7712 12 13.6666 12H11.6666C10.5621 12 9.66663 12.8954 9.66663 14V23H5.66663C4.87098 23 4.10791 22.6839 3.54531 22.1213C2.9827 21.5587 2.66663 20.7957 2.66663 20V9C2.66663 8.69141 2.8091 8.4001 3.05269 8.21065L12.0527 1.21065Z" fill="white"/>
</svg>
