<svg width="24" height="24" viewBox="0 0 24 24" fill="none" xmlns="http://www.w3.org/2000/svg">
<path d="M12.5525 2.28968L12 3.0001L12 3.0001L12.5525 2.28968ZM11.4475 2.28968L12 3.0001L12 3.0001L11.4475 2.28968ZM20.6525 8.58968L21.2051 7.87926L21.2051 7.87926L20.6525 8.58968ZM3.79081 21.1093L3.15441 21.7457L3.15442 21.7457L3.79081 21.1093ZM3.34745 8.58968L2.79491 7.87926H2.79491L3.34745 8.58968ZM9.3 21.9H8.4C8.4 22.3971 8.80294 22.8 9.3 22.8V21.9ZM14.7 21.9V22.8C15.1971 22.8 15.6 22.3971 15.6 21.9H14.7ZM13.1051 1.57926C12.4551 1.07371 11.5449 1.07371 10.8949 1.57926L12 3.0001L12 3.0001L13.1051 1.57926ZM21.2051 7.87926L13.1051 1.57926L12 3.0001L20.1 9.3001L21.2051 7.87926ZM21.9 9.3001C21.9 8.74463 21.6435 8.22028 21.2051 7.87926L20.1 9.3001L20.1 9.3001H21.9ZM21.9 19.2001V9.3001H20.1V19.2001H21.9ZM20.8456 21.7457C21.5207 21.0706 21.9 20.1549 21.9 19.2001H20.1C20.1 19.6775 19.9104 20.1353 19.5728 20.4729L20.8456 21.7457ZM18.3 22.8001C19.2548 22.8001 20.1705 22.4208 20.8456 21.7457L19.5728 20.4729C19.2352 20.8105 18.7774 21.0001 18.3 21.0001V22.8001ZM5.7 22.8001H18.3V21.0001H5.7V22.8001ZM3.15442 21.7457C3.82955 22.4208 4.74522 22.8001 5.7 22.8001V21.0001C5.22261 21.0001 4.76477 20.8105 4.42721 20.4729L3.15442 21.7457ZM2.1 19.2001C2.1 20.1549 2.47929 21.0705 3.15441 21.7457L4.42721 20.4729C4.08964 20.1353 3.9 19.6775 3.9 19.2001H2.1ZM2.1 9.3001V19.2001H3.9V9.3001H2.1ZM2.79491 7.87926C2.35645 8.22028 2.1 8.74463 2.1 9.3001H3.9L3.9 9.3001L2.79491 7.87926ZM10.8949 1.57926L2.79491 7.87926L3.9 9.3001L12 3.0001L10.8949 1.57926ZM10.2 13.8C10.2 13.3029 10.6029 12.9 11.1 12.9V11.1C9.60883 11.1 8.4 12.3088 8.4 13.8H10.2ZM10.2 21.9V13.8H8.4V21.9H10.2ZM14.7 21H9.3V22.8H14.7V21ZM13.8 13.8V21.9H15.6V13.8H13.8ZM12.9 12.9C13.3971 12.9 13.8 13.3029 13.8 13.8H15.6C15.6 12.3088 14.3912 11.1 12.9 11.1V12.9ZM11.1 12.9H12.9V11.1H11.1V12.9Z" fill="white"/>
</svg>
