<svg width="24" height="24" viewBox="0 0 24 24" fill="none" xmlns="http://www.w3.org/2000/svg">
<path d="M4.28572 9.42859C2.87144 9.42859 1.71429 10.5857 1.71429 12C1.71429 13.4143 2.87144 14.5714 4.28572 14.5714C5.70001 14.5714 6.85715 13.4143 6.85715 12C6.85715 10.5857 5.70001 9.42859 4.28572 9.42859ZM19.7143 9.42859C18.3 9.42859 17.1429 10.5857 17.1429 12C17.1429 13.4143 18.3 14.5714 19.7143 14.5714C21.1286 14.5714 22.2857 13.4143 22.2857 12C22.2857 10.5857 21.1286 9.42859 19.7143 9.42859ZM12 9.42859C10.5857 9.42859 9.42858 10.5857 9.42858 12C9.42858 13.4143 10.5857 14.5714 12 14.5714C13.4143 14.5714 14.5714 13.4143 14.5714 12C14.5714 10.5857 13.4143 9.42859 12 9.42859Z" fill="white"/>
</svg>
