<svg width="128" height="32" viewBox="0 0 128 32" fill="none" xmlns="http://www.w3.org/2000/svg">
<g clip-path="url(#clip0_645_34872)">
<path d="M0.865723 7.12567H7.59821V27.0817H13.365V7.12567H20.0975V2.38672H0.865723V7.12567Z" fill="white"/>
<path d="M32.852 8.31903C30.0928 8.31903 28.1475 9.68484 27.2922 11.9336H27.0852V2.38672H21.5254V27.0817H27.2922V16.4725C27.2922 14.3203 28.589 13.0304 30.4997 13.0304C32.4105 13.0304 33.5694 14.2927 33.5349 16.3759V27.0886H39.3016V15.2861C39.3016 11.0576 36.7425 8.32593 32.852 8.32593V8.31903Z" fill="white"/>
<path d="M88.7398 11.7336H88.6018C87.8844 10.0642 86.3186 8.32593 83.3524 8.32593C80.3863 8.32593 77.496 10.1815 76.4199 14.1203L68.094 14.1548L73.233 0H73.1226L58.3815 17.5624V8.56047H52.6492V19.1007C52.6492 21.3149 51.2145 22.5428 49.4417 22.5428C47.6689 22.5428 46.4755 21.2804 46.4755 19.2662V8.55357H40.7087V20.3561C40.7087 24.5846 43.2679 27.3162 47.0549 27.3162C49.8486 27.3162 51.8974 25.8814 52.7182 23.6672H52.9252V27.0748H58.3815V17.8797L66.735 17.8521L61.596 31.9931H61.7064L76.2888 14.6169C76.075 15.5758 75.9508 16.645 75.9508 17.8314C75.9508 24.1086 79.2619 27.3507 83.3869 27.3507C86.2151 27.3507 87.8568 25.7504 88.6087 24.0742H88.7812V27.0748H94.479V2.38672H88.7467V11.7336H88.7398ZM85.3322 22.8532C83.1179 22.8532 81.8555 20.8735 81.8555 17.8038C81.8555 14.7342 83.0834 12.8235 85.3322 12.8235C87.5809 12.8235 88.8433 14.7342 88.8433 17.8038C88.8433 20.8735 87.5464 22.8532 85.3322 22.8532Z" fill="white"/>
<path d="M105.074 8.31897C99.5145 8.31897 95.9344 12.175 95.9344 17.9003C95.9344 23.6257 99.48 27.4127 105.281 27.4127C110.089 27.4127 113.262 25.095 113.945 21.4804H108.592C108.116 22.5703 106.958 23.2532 105.385 23.2532C103.067 23.2532 101.598 21.715 101.598 19.3282V19.2248H114.014V17.7555C114.014 11.6162 110.262 8.30518 105.081 8.30518L105.074 8.31897ZM101.598 15.8585C101.681 13.934 103.164 12.4785 105.212 12.4785C107.261 12.4785 108.62 13.8788 108.654 15.8585H101.591H101.598Z" fill="white"/>
<path d="M125.5 8.29132C123.451 8.29132 121.816 9.48468 121.133 11.9059H120.961V8.56035H115.366V27.0816H121.133V16.9484C121.133 14.7341 122.699 13.2303 124.851 13.2303C125.569 13.2303 126.589 13.3338 127.134 13.5062V8.49137C126.658 8.38789 126.044 8.28442 125.5 8.28442V8.29132Z" fill="white"/>
</g>
<defs>
<clipPath id="clip0_645_34872">
<rect width="126.269" height="32" fill="white" transform="translate(0.865723)"/>
</clipPath>
</defs>
</svg>
