<svg width="95" height="24" viewBox="0 0 95 24" fill="none" xmlns="http://www.w3.org/2000/svg">
<g clip-path="url(#clip0_402_8240)">
<path d="M0 5.34425H5.04936V20.3113H9.37443V5.34425H14.4238V1.79004H0V5.34425Z" fill="white"/>
<path d="M23.9896 6.23927C21.9202 6.23927 20.4612 7.26363 19.8197 8.9502H19.6645V1.79004H15.4946V20.3113H19.8197V12.3544C19.8197 10.7402 20.7923 9.77279 22.2254 9.77279C23.6585 9.77279 24.5276 10.7195 24.5017 12.282V20.3164H28.8268V11.4645C28.8268 8.29317 26.9074 6.24445 23.9896 6.24445V6.23927Z" fill="white"/>
<path d="M65.9056 8.80017H65.8021C65.2641 7.54818 64.0897 6.24445 61.8651 6.24445C59.6405 6.24445 57.4728 7.63613 56.6657 10.5902L50.4212 10.6161L54.2755 0H54.1927L43.1369 13.1718V6.42035H38.8377V14.3255C38.8377 15.9862 37.7616 16.9071 36.432 16.9071C35.1024 16.9071 34.2074 15.9603 34.2074 14.4497V6.41518H29.8823V15.2671C29.8823 18.4385 31.8017 20.4872 34.642 20.4872C36.7373 20.4872 38.2738 19.4111 38.8894 17.7504H39.0446V20.3061H43.1369V13.4098L49.4021 13.3891L45.5478 23.9948H45.6305L56.5674 10.9627C56.407 11.6818 56.3139 12.4837 56.3139 13.3736C56.3139 18.0815 58.7972 20.513 61.8909 20.513C64.0121 20.513 65.2434 19.3128 65.8073 18.0556H65.9367V20.3061H70.21V1.79004H65.9108V8.80017H65.9056ZM63.3499 17.1399C61.6892 17.1399 60.7424 15.6551 60.7424 13.3529C60.7424 11.0507 61.6633 9.61759 63.3499 9.61759C65.0365 9.61759 65.9832 11.0507 65.9832 13.3529C65.9832 15.6551 65.0106 17.1399 63.3499 17.1399Z" fill="white"/>
<path d="M78.1564 6.23923C73.9866 6.23923 71.3015 9.13123 71.3015 13.4253C71.3015 17.7193 73.9607 20.5596 78.3116 20.5596C81.9176 20.5596 84.2974 18.8212 84.8096 16.1103H80.7949C80.438 16.9277 79.5688 17.4399 78.3892 17.4399C76.6509 17.4399 75.549 16.2862 75.549 14.4962V14.4186H84.8613V13.3166C84.8613 8.71218 82.0469 6.22888 78.1616 6.22888L78.1564 6.23923ZM75.549 11.8939C75.6111 10.4505 76.7234 9.35887 78.2599 9.35887C79.7964 9.35887 80.8156 10.4091 80.8415 11.8939H75.5438H75.549Z" fill="white"/>
<path d="M93.4754 6.21855C91.9389 6.21855 90.7127 7.11357 90.2006 8.92948H90.0712V6.42032H85.8755V20.3112H90.2006V12.7113C90.2006 11.0506 91.3749 9.9228 92.9891 9.9228C93.5271 9.9228 94.2928 10.0004 94.7015 10.1297V6.36858C94.3446 6.29098 93.8841 6.21338 93.4754 6.21338V6.21855Z" fill="white"/>
</g>
<defs>
<clipPath id="clip0_402_8240">
<rect width="94.7015" height="24" fill="white"/>
</clipPath>
</defs>
</svg>
