<svg width="52" height="52" viewBox="0 0 52 52" fill="none" xmlns="http://www.w3.org/2000/svg">
<circle cx="26" cy="26" r="26" fill="black" fill-opacity="0.5"/>
<path d="M26 13.2002C22.8335 13.2002 19.923 14.3559 17.6875 16.2669C17.5754 16.3561 17.4825 16.4669 17.4142 16.5928C17.3459 16.7187 17.3037 16.8571 17.29 16.9996C17.2763 17.1422 17.2915 17.2861 17.3346 17.4226C17.3778 17.5592 17.4479 17.6857 17.541 17.7946C17.6341 17.9035 17.7481 17.9925 17.8763 18.0563C18.0045 18.1202 18.1442 18.1576 18.2872 18.1663C18.4302 18.175 18.5734 18.1548 18.7084 18.1069C18.8434 18.059 18.9674 17.9845 19.0729 17.8877C20.9377 16.2936 23.351 15.3335 26 15.3335C31.543 15.3335 36.0811 19.534 36.6146 24.9335H33.4667L37.7333 31.3335L42 24.9335H38.7458C38.2005 18.3753 32.6964 13.2002 26 13.2002ZM14.2667 20.6669L10 27.0669H13.2542C13.7995 33.6251 19.3036 38.8002 26 38.8002C29.1665 38.8002 32.077 37.6445 34.3125 35.7335C34.4246 35.6443 34.5175 35.5335 34.5858 35.4076C34.6541 35.2817 34.6963 35.1433 34.71 35.0008C34.7237 34.8582 34.7085 34.7143 34.6654 34.5777C34.6222 34.4412 34.5521 34.3147 34.459 34.2058C34.3659 34.0969 34.2519 34.0079 34.1237 33.944C33.9955 33.8802 33.8558 33.8428 33.7128 33.8341C33.5698 33.8254 33.4266 33.8456 33.2916 33.8935C33.1566 33.9413 33.0326 34.0159 32.9271 34.1127C31.0623 35.7068 28.649 36.6669 26 36.6669C20.457 36.6669 15.9189 32.4664 15.3854 27.0669H18.5333L14.2667 20.6669Z" fill="white"/>
</svg>
