<svg width="48" height="48" viewBox="0 0 48 48" fill="none" xmlns="http://www.w3.org/2000/svg">
<path d="M6.0001 36.0002C6 35.871 6 35.7378 6 35.6004V12.4004C6 10.1602 6 9.03924 6.43597 8.18359C6.81947 7.43095 7.43095 6.81947 8.18359 6.43597C9.03924 6 10.1602 6 12.4004 6H35.6004C37.8406 6 38.9601 6 39.8158 6.43597C40.5684 6.81947 41.181 7.43095 41.5645 8.18359C42 9.0384 42 10.158 42 12.3938V35.6062C42 36.5762 42 37.3358 41.9644 37.9548M6.0001 36.0002C6.00164 37.9768 6.02674 39.0116 6.43597 39.8148C6.81947 40.5674 7.43095 41.181 8.18359 41.5645C9.0384 42 10.158 42 12.3938 42H35.6072C37.843 42 38.961 42 39.8158 41.5645C40.5684 41.181 41.181 40.5674 41.5645 39.8148C41.811 39.3308 41.918 38.7625 41.9644 37.9548M6.0001 36.0002L15.536 24.875L15.5388 24.8719C16.3845 23.8852 16.8081 23.391 17.3105 23.2129C17.7519 23.0564 18.2337 23.0601 18.6729 23.2227C19.1733 23.4079 19.5901 23.9077 20.4238 24.9082L25.7662 31.319C26.5379 32.2451 26.926 32.7108 27.3972 32.8978C27.8129 33.0626 28.2713 33.0812 28.7002 32.9547C29.1884 32.8106 29.6181 32.3809 30.4775 31.5215L31.4717 30.5273C32.3467 29.6524 32.7842 29.2152 33.2794 29.0723C33.7143 28.9468 34.1793 28.9737 34.5977 29.1465C35.074 29.3432 35.4604 29.8248 36.2334 30.791L41.9644 37.9548M41.9644 37.9548L42 37.9992M30 18C28.8954 18 28 17.1046 28 16C28 14.8954 28.8954 14 30 14C31.1046 14 32 14.8954 32 16C32 17.1046 31.1046 18 30 18Z" stroke="white" stroke-width="4" stroke-linecap="round" stroke-linejoin="round"/>
</svg>
